<svg width="24" height="24" viewBox="0 0 24 24" fill="none" xmlns="http://www.w3.org/2000/svg">
<path d="M19.9234 17.1563H18.2757C18.1632 17.1563 18.0577 17.2055 17.9874 17.2922C17.8234 17.4914 17.6476 17.6836 17.4624 17.8664C16.7052 18.6245 15.8081 19.2286 14.821 19.6453C13.7983 20.0773 12.6992 20.2989 11.589 20.2969C10.4663 20.2969 9.37884 20.0766 8.35697 19.6453C7.36985 19.2286 6.47284 18.6245 5.71556 17.8664C4.95692 17.1109 4.35201 16.2155 3.93431 15.2297C3.50072 14.2078 3.28275 13.1227 3.28275 12C3.28275 10.8773 3.50306 9.79219 3.93431 8.77032C4.3515 7.7836 4.9515 6.89532 5.71556 6.1336C6.47962 5.37188 7.3679 4.77188 8.35697 4.35469C9.37884 3.92344 10.4663 3.70313 11.589 3.70313C12.7117 3.70313 13.7992 3.9211 14.821 4.35469C15.8101 4.77188 16.6984 5.37188 17.4624 6.1336C17.6476 6.31876 17.821 6.51094 17.9874 6.70782C18.0577 6.79454 18.1656 6.84375 18.2757 6.84375H19.9234C20.071 6.84375 20.1624 6.67969 20.0804 6.55547C18.2827 3.76172 15.1374 1.9125 11.5632 1.92188C5.94759 1.93594 1.44525 6.49454 1.5015 12.1031C1.55775 17.6227 6.05306 22.0781 11.589 22.0781C15.1538 22.0781 18.2851 20.2313 20.0804 17.4445C20.1601 17.3203 20.071 17.1563 19.9234 17.1563ZM22.007 11.8523L18.6812 9.22735C18.557 9.12891 18.3765 9.21797 18.3765 9.37501V11.1563H11.0171C10.914 11.1563 10.8296 11.2406 10.8296 11.3438V12.6563C10.8296 12.7594 10.914 12.8438 11.0171 12.8438H18.3765V14.625C18.3765 14.782 18.5593 14.8711 18.6812 14.7727L22.007 12.1477C22.0294 12.1301 22.0475 12.1077 22.06 12.0821C22.0724 12.0565 22.0789 12.0285 22.0789 12C22.0789 11.9715 22.0724 11.9435 22.06 11.9179C22.0475 11.8923 22.0294 11.8699 22.007 11.8523Z" fill="#152744"/>
</svg>
