<svg width="20" height="16" viewBox="0 0 20 16" fill="none" xmlns="http://www.w3.org/2000/svg">
<path d="M17.7778 12.4444H2.22222C0.996667 12.4444 0 13.2418 0 14.2222C0 15.2027 0.996667 16 2.22222 16H17.7778C19.0033 16 20 15.2027 20 14.2222C20 13.2418 19.0033 12.4444 17.7778 12.4444ZM17.7778 6.22222H2.22222C0.996667 6.22222 0 7.01956 0 8C0 8.98044 0.996667 9.77778 2.22222 9.77778H17.7778C19.0033 9.77778 20 8.98044 20 8C20 7.01956 19.0033 6.22222 17.7778 6.22222ZM17.7778 0H2.22222C0.996667 0 0 0.797333 0 1.77778C0 2.75822 0.996667 3.55556 2.22222 3.55556H17.7778C19.0033 3.55556 20 2.75822 20 1.77778C20 0.797333 19.0033 0 17.7778 0Z" fill="#3E58F0"/>
</svg>
