<svg width="24" height="24" viewBox="0 0 24 24" fill="none" xmlns="http://www.w3.org/2000/svg">
<path d="M11.4912 7.875C10.6754 7.875 9.87784 8.11693 9.19949 8.57019C8.52113 9.02345 7.99242 9.66769 7.68021 10.4214C7.368 11.1752 7.28631 12.0046 7.44547 12.8047C7.60464 13.6049 7.99751 14.3399 8.5744 14.9168C9.15129 15.4937 9.88629 15.8866 10.6865 16.0457C11.4866 16.2049 12.316 16.1232 13.0698 15.811C13.8235 15.4988 14.4678 14.9701 14.921 14.2917C15.3743 13.6134 15.6162 12.8158 15.6162 12C15.6149 10.9064 15.1799 9.85795 14.4066 9.08465C13.6333 8.31135 12.5848 7.87632 11.4912 7.875ZM11.4912 14.625C10.972 14.625 10.4645 14.471 10.0328 14.1826C9.60116 13.8942 9.26471 13.4842 9.06603 13.0045C8.86735 12.5249 8.81537 11.9971 8.91665 11.4879C9.01794 10.9787 9.26794 10.511 9.63506 10.1438C10.0022 9.77673 10.4699 9.52673 10.9791 9.42544C11.4883 9.32415 12.0161 9.37614 12.4958 9.57482C12.9754 9.7735 13.3854 10.1099 13.6738 10.5416C13.9623 10.9733 14.1162 11.4808 14.1162 12C14.1152 12.6959 13.8383 13.3629 13.3462 13.855C12.8541 14.347 12.1871 14.6239 11.4912 14.625Z" fill="#152744"/>
<path d="M21.7828 15.109L20.2938 13.883C20.4198 13.317 20.4918 12.667 20.4918 12C20.4918 11.333 20.4198 10.683 20.2828 10.057L20.2938 10.117L21.7828 8.891C21.9557 8.75 22.0723 8.55166 22.1114 8.33202C22.1505 8.11237 22.1095 7.88599 21.9958 7.694L21.9978 7.698L20.4688 5.05C20.3577 4.85619 20.1808 4.70859 19.9702 4.63393C19.7596 4.55927 19.5292 4.56249 19.3208 4.643L19.3268 4.641L17.5188 5.318C16.5944 4.48106 15.5061 3.84559 14.3228 3.452L14.2588 3.434L13.9418 1.532C13.9058 1.31342 13.7934 1.11472 13.6245 0.971321C13.4556 0.827921 13.2414 0.749134 13.0198 0.749001H9.95682C9.73608 0.748773 9.52241 0.826817 9.35379 0.969262C9.18516 1.11171 9.0725 1.30933 9.03582 1.527L9.03482 1.532L8.71782 3.434C7.50785 3.82733 6.39457 4.47172 5.45082 5.325L5.45882 5.318L3.65082 4.641C3.4439 4.56282 3.21594 4.56061 3.00754 4.63478C2.79914 4.70894 2.62383 4.85467 2.51282 5.046L2.51082 5.05L0.981824 7.698C0.870459 7.88973 0.830937 8.11483 0.870327 8.33303C0.909717 8.55124 1.02545 8.74831 1.19682 8.889L1.19882 8.89L2.68782 10.116C2.56182 10.682 2.48982 11.332 2.48982 11.999C2.48982 12.666 2.56182 13.316 2.69882 13.942L2.68782 13.882L1.19882 15.108C1.02593 15.249 0.909353 15.4473 0.870268 15.667C0.831183 15.8866 0.872185 16.113 0.985824 16.305L0.983824 16.301L2.51282 18.949C2.62383 19.143 2.80065 19.2908 3.01125 19.3657C3.22185 19.4405 3.45229 19.4374 3.66082 19.357L3.65482 19.359L5.46282 18.682C6.3872 19.5189 7.4756 20.1544 8.65882 20.548L8.72282 20.566L9.03982 22.468C9.07584 22.6866 9.18829 22.8853 9.35715 23.0287C9.52601 23.1721 9.74029 23.2509 9.96182 23.251H13.0248C13.2456 23.2512 13.4592 23.1732 13.6279 23.0307C13.7965 22.8883 13.9092 22.6907 13.9458 22.473L13.9468 22.468L14.2638 20.566C15.4738 20.1727 16.5871 19.5283 17.5308 18.675L17.5228 18.682L19.3308 19.359C19.5377 19.4372 19.7657 19.4394 19.9741 19.3652C20.1825 19.2911 20.3578 19.1453 20.4688 18.954L20.4708 18.95L21.9998 16.302C22.1112 16.1103 22.1507 15.8852 22.1113 15.667C22.0719 15.4488 21.9562 15.2517 21.7848 15.111L21.7828 15.11V15.109ZM19.4088 17.786L17.1538 16.941L16.8128 17.285C15.8866 18.2198 14.7305 18.8941 13.4608 19.24L13.4078 19.252L12.9388 19.376L12.5428 21.75H10.4388L10.0428 19.376L9.57382 19.252C8.28475 18.9099 7.1099 18.231 6.16982 17.285L5.82882 16.941L3.57382 17.786L2.52182 15.964L4.37982 14.435L4.25282 13.968C4.08682 13.378 3.99182 12.701 3.99182 12.001C3.99182 11.301 4.08682 10.624 4.26582 9.981L4.25282 10.034L4.37982 9.567L2.52182 8.038L3.57382 6.216L5.82882 7.061L6.16982 6.717C7.09602 5.78219 8.25215 5.10789 9.52182 4.762L9.57482 4.75L10.0438 4.626L10.4398 2.252H12.5438L12.9398 4.626L13.4088 4.75C14.6979 5.09208 15.8727 5.77097 16.8128 6.717L17.1538 7.061L19.4088 6.216L20.4608 8.038L18.6028 9.567L18.7298 10.034C18.8958 10.624 18.9908 11.301 18.9908 12.001C18.9908 12.701 18.8958 13.378 18.7168 14.021L18.7298 13.968L18.6028 14.435L20.4608 15.964L19.4088 17.786Z" fill="#152744"/>
</svg>
