<svg width="24" height="24" viewBox="0 0 24 24" fill="none" xmlns="http://www.w3.org/2000/svg">
<path d="M4.12502 3.375V18.188C4.12502 18.4368 4.0262 18.6754 3.85029 18.8513C3.67438 19.0272 3.4358 19.126 3.18702 19.126C2.93825 19.126 2.69967 19.0272 2.52376 18.8513C2.34785 18.6754 2.24902 18.4368 2.24902 18.188V7.125H0.749023V18.188C0.749817 18.8342 1.00679 19.4537 1.46362 19.9107C1.92045 20.3677 2.53984 20.6249 3.18602 20.626H20.811C21.4572 20.6252 22.0767 20.3682 22.5337 19.9114C22.9907 19.4546 23.248 18.8352 23.249 18.189V3.376L4.12502 3.375ZM21.75 18.188C21.7495 18.4364 21.6506 18.6746 21.4751 18.8503C21.2995 19.0261 21.0615 19.1252 20.813 19.126H5.43802C5.55702 18.85 5.62602 18.528 5.62602 18.191V4.876H21.751L21.75 18.188Z" fill="#152744"/>
<path d="M13.875 6.375H7.125V13.875H13.875V6.375ZM12.375 12.375H8.625V7.875H12.375V12.375Z" fill="#152744"/>
<path d="M15.375 6.375H20.25V7.875H15.375V6.375Z" fill="#152744"/>
<path d="M15.375 9.375H20.25V10.875H15.375V9.375Z" fill="#152744"/>
<path d="M15.375 12.375H20.25V13.875H15.375V12.375Z" fill="#152744"/>
</svg>
