<svg width="24" height="24" viewBox="0 0 24 24" fill="none" xmlns="http://www.w3.org/2000/svg">
<path d="M4.125 7.5C4.71834 7.5 5.29836 7.32405 5.79171 6.99441C6.28506 6.66477 6.66958 6.19623 6.89664 5.64805C7.1237 5.09987 7.18311 4.49667 7.06736 3.91473C6.9516 3.33279 6.66588 2.79824 6.24632 2.37868C5.82676 1.95912 5.29221 1.6734 4.71027 1.55765C4.12833 1.44189 3.52513 1.5013 2.97695 1.72836C2.42877 1.95543 1.96024 2.33994 1.63059 2.83329C1.30095 3.32664 1.125 3.90666 1.125 4.5C1.12606 5.29533 1.44247 6.05777 2.00485 6.62015C2.56723 7.18253 3.32968 7.49894 4.125 7.5ZM4.125 3C4.42167 3 4.71168 3.08798 4.95836 3.2528C5.20503 3.41762 5.39729 3.65189 5.51082 3.92598C5.62435 4.20007 5.65406 4.50167 5.59618 4.79264C5.5383 5.08361 5.39544 5.35088 5.18566 5.56066C4.97588 5.77044 4.70861 5.9133 4.41764 5.97118C4.12666 6.02906 3.82506 5.99935 3.55097 5.88582C3.27689 5.77229 3.04262 5.58003 2.8778 5.33336C2.71297 5.08668 2.625 4.79667 2.625 4.5C2.62553 4.10234 2.78373 3.72112 3.06492 3.43993C3.34611 3.15874 3.72734 3.00053 4.125 3Z" fill="#152744"/>
<path d="M12 1.5C11.4067 1.5 10.8266 1.67595 10.3333 2.00559C9.83994 2.33524 9.45543 2.80377 9.22836 3.35195C9.0013 3.90013 8.94189 4.50333 9.05765 5.08527C9.1734 5.66721 9.45912 6.20176 9.87868 6.62132C10.2982 7.04088 10.8328 7.3266 11.4147 7.44236C11.9967 7.55811 12.5999 7.4987 13.1481 7.27164C13.6962 7.04458 14.1648 6.66006 14.4944 6.16671C14.8241 5.67336 15 5.09334 15 4.5C14.9989 3.70468 14.6825 2.94223 14.1202 2.37985C13.5578 1.81747 12.7953 1.50106 12 1.5ZM12 6C11.7033 6 11.4133 5.91203 11.1666 5.7472C10.92 5.58238 10.7277 5.34811 10.6142 5.07403C10.5007 4.79994 10.4709 4.49834 10.5288 4.20736C10.5867 3.91639 10.7296 3.64912 10.9393 3.43934C11.1491 3.22956 11.4164 3.0867 11.7074 3.02882C11.9983 2.97094 12.2999 3.00065 12.574 3.11418C12.8481 3.22771 13.0824 3.41997 13.2472 3.66664C13.412 3.91332 13.5 4.20333 13.5 4.5C13.4995 4.89766 13.3413 5.27889 13.0601 5.56008C12.7789 5.84127 12.3977 5.99947 12 6Z" fill="#152744"/>
<path d="M19.875 7.5C20.4683 7.5 21.0484 7.32405 21.5417 6.99441C22.0351 6.66477 22.4196 6.19623 22.6466 5.64805C22.8737 5.09987 22.9331 4.49667 22.8174 3.91473C22.7016 3.33279 22.4159 2.79824 21.9963 2.37868C21.5768 1.95912 21.0422 1.6734 20.4603 1.55765C19.8783 1.44189 19.2751 1.5013 18.7269 1.72836C18.1788 1.95543 17.7102 2.33994 17.3806 2.83329C17.0509 3.32664 16.875 3.90666 16.875 4.5C16.8761 5.29533 17.1925 6.05777 17.7548 6.62015C18.3172 7.18253 19.0797 7.49894 19.875 7.5ZM19.875 3C20.1717 3 20.4617 3.08798 20.7084 3.2528C20.955 3.41762 21.1473 3.65189 21.2608 3.92598C21.3744 4.20007 21.4041 4.50167 21.3462 4.79264C21.2883 5.08361 21.1454 5.35088 20.9357 5.56066C20.7259 5.77044 20.4586 5.9133 20.1676 5.97118C19.8767 6.02906 19.5751 5.99935 19.301 5.88582C19.0269 5.77229 18.7926 5.58003 18.6278 5.33336C18.463 5.08668 18.375 4.79667 18.375 4.5C18.3755 4.10234 18.5337 3.72112 18.8149 3.43993C19.0961 3.15874 19.4773 3.00053 19.875 3Z" fill="#152744"/>
<path d="M4.125 9C3.53166 9 2.95164 9.17595 2.45829 9.50559C1.96494 9.83524 1.58043 10.3038 1.35336 10.8519C1.1263 11.4001 1.06689 12.0033 1.18265 12.5853C1.2984 13.1672 1.58412 13.7018 2.00368 14.1213C2.42324 14.5409 2.95779 14.8266 3.53973 14.9424C4.12167 15.0581 4.72487 14.9987 5.27305 14.7716C5.82123 14.5446 6.28977 14.1601 6.61941 13.6667C6.94905 13.1734 7.125 12.5933 7.125 12C7.12394 11.2047 6.80753 10.4422 6.24515 9.87985C5.68277 9.31747 4.92033 9.00106 4.125 9ZM4.125 13.5C3.82833 13.5 3.53832 13.412 3.29165 13.2472C3.04497 13.0824 2.85271 12.8481 2.73918 12.574C2.62565 12.2999 2.59595 11.9983 2.65382 11.7074C2.7117 11.4164 2.85456 11.1491 3.06434 10.9393C3.27412 10.7296 3.54139 10.5867 3.83237 10.5288C4.12334 10.4709 4.42494 10.5006 4.69903 10.6142C4.97312 10.7277 5.20738 10.92 5.37221 11.1666C5.53703 11.4133 5.625 11.7033 5.625 12C5.62447 12.3977 5.46627 12.7789 5.18508 13.0601C4.90389 13.3413 4.52266 13.4995 4.125 13.5Z" fill="#152744"/>
<path d="M12 9C11.4067 9 10.8266 9.17595 10.3333 9.50559C9.83994 9.83524 9.45543 10.3038 9.22836 10.8519C9.0013 11.4001 8.94189 12.0033 9.05765 12.5853C9.1734 13.1672 9.45912 13.7018 9.87868 14.1213C10.2982 14.5409 10.8328 14.8266 11.4147 14.9424C11.9967 15.0581 12.5999 14.9987 13.1481 14.7716C13.6962 14.5446 14.1648 14.1601 14.4944 13.6667C14.8241 13.1734 15 12.5933 15 12C14.9989 11.2047 14.6825 10.4422 14.1202 9.87985C13.5578 9.31747 12.7953 9.00106 12 9ZM12 13.5C11.7033 13.5 11.4133 13.412 11.1666 13.2472C10.92 13.0824 10.7277 12.8481 10.6142 12.574C10.5007 12.2999 10.4709 11.9983 10.5288 11.7074C10.5867 11.4164 10.7296 11.1491 10.9393 10.9393C11.1491 10.7296 11.4164 10.5867 11.7074 10.5288C11.9983 10.4709 12.2999 10.5006 12.574 10.6142C12.8481 10.7277 13.0824 10.92 13.2472 11.1666C13.412 11.4133 13.5 11.7033 13.5 12C13.4995 12.3977 13.3413 12.7789 13.0601 13.0601C12.7789 13.3413 12.3977 13.4995 12 13.5Z" fill="#152744"/>
<path d="M19.875 9C19.2817 9 18.7016 9.17595 18.2083 9.50559C17.7149 9.83524 17.3304 10.3038 17.1034 10.8519C16.8763 11.4001 16.8169 12.0033 16.9326 12.5853C17.0484 13.1672 17.3341 13.7018 17.7537 14.1213C18.1732 14.5409 18.7078 14.8266 19.2897 14.9424C19.8717 15.0581 20.4749 14.9987 21.0231 14.7716C21.5712 14.5446 22.0398 14.1601 22.3694 13.6667C22.6991 13.1734 22.875 12.5933 22.875 12C22.8739 11.2047 22.5575 10.4422 21.9952 9.87985C21.4328 9.31747 20.6703 9.00106 19.875 9ZM19.875 13.5C19.5783 13.5 19.2883 13.412 19.0416 13.2472C18.795 13.0824 18.6027 12.8481 18.4892 12.574C18.3757 12.2999 18.3459 11.9983 18.4038 11.7074C18.4617 11.4164 18.6046 11.1491 18.8143 10.9393C19.0241 10.7296 19.2914 10.5867 19.5824 10.5288C19.8733 10.4709 20.1749 10.5006 20.449 10.6142C20.7231 10.7277 20.9574 10.92 21.1222 11.1666C21.287 11.4133 21.375 11.7033 21.375 12C21.3745 12.3977 21.2163 12.7789 20.9351 13.0601C20.6539 13.3413 20.2727 13.4995 19.875 13.5Z" fill="#152744"/>
<path d="M19.875 16.5C19.2817 16.5 18.7016 16.6759 18.2083 17.0056C17.7149 17.3352 17.3304 17.8038 17.1034 18.3519C16.8763 18.9001 16.8169 19.5033 16.9326 20.0853C17.0484 20.6672 17.3341 21.2018 17.7537 21.6213C18.1732 22.0409 18.7078 22.3266 19.2897 22.4424C19.8717 22.5581 20.4749 22.4987 21.0231 22.2716C21.5712 22.0446 22.0398 21.6601 22.3694 21.1667C22.6991 20.6734 22.875 20.0933 22.875 19.5C22.8739 18.7047 22.5575 17.9422 21.9952 17.3798C21.4328 16.8175 20.6703 16.5011 19.875 16.5ZM19.875 21C19.5783 21 19.2883 20.912 19.0416 20.7472C18.795 20.5824 18.6027 20.3481 18.4892 20.074C18.3757 19.7999 18.3459 19.4983 18.4038 19.2074C18.4617 18.9164 18.6046 18.6491 18.8143 18.4393C19.0241 18.2296 19.2914 18.0867 19.5824 18.0288C19.8733 17.9709 20.1749 18.0007 20.449 18.1142C20.7231 18.2277 20.9574 18.42 21.1222 18.6666C21.287 18.9133 21.375 19.2033 21.375 19.5C21.3745 19.8977 21.2163 20.2789 20.9351 20.5601C20.6539 20.8413 20.2727 20.9995 19.875 21Z" fill="#152744"/>
<path d="M2.625 19.125H4.125V20.625H2.625V19.125Z" fill="#152744"/>
<path d="M7.125 19.125H8.625V20.625H7.125V19.125Z" fill="#152744"/>
<path d="M11.625 19.125H13.125V20.625H11.625V19.125Z" fill="#152744"/>
</svg>
