<svg width="11" height="13" viewBox="0 0 11 13" fill="none" xmlns="http://www.w3.org/2000/svg">
<path d="M10.0881 11.056C10.1948 11.1733 10.2481 11.3067 10.2481 11.456C10.2481 11.6267 10.1841 11.7707 10.0561 11.888C9.92813 12.0053 9.77879 12.064 9.60813 12.064C9.43746 12.064 9.28279 11.9893 9.14412 11.84L5.49613 7.184L1.83213 11.84C1.71479 11.9893 1.56013 12.064 1.36813 12.064C1.20813 12.064 1.06413 12.0053 0.936125 11.888C0.808125 11.76 0.744125 11.616 0.744125 11.456C0.744125 11.296 0.792125 11.1627 0.888125 11.056L4.72813 6.24L1.09613 1.664C0.989458 1.54667 0.936125 1.408 0.936125 1.248C0.936125 1.088 0.994792 0.949333 1.11213 0.832C1.24013 0.714666 1.38413 0.655999 1.54413 0.655999C1.72546 0.655999 1.88013 0.735999 2.00813 0.896L5.49613 5.312L8.96813 0.896C9.09613 0.735999 9.25079 0.655999 9.43213 0.655999C9.59213 0.655999 9.73613 0.719999 9.86413 0.848C9.99213 0.965333 10.0561 1.10933 10.0561 1.28C10.0561 1.42933 10.0081 1.55733 9.91213 1.664L6.26413 6.24L10.0881 11.056Z" fill="#3E58F0"/>
</svg>
