<svg width="119" height="40" viewBox="0 0 119 40" fill="none" xmlns="http://www.w3.org/2000/svg">
<path d="M52.5 12.92V24.68H57.2V28H48.58V12.92H52.5ZM64.3516 20.46C64.3516 21.06 64.4649 21.6133 64.6916 22.12C64.9182 22.6267 65.2249 23.0667 65.6116 23.44C65.9982 23.8133 66.4449 24.1067 66.9516 24.32C67.4716 24.52 68.0182 24.62 68.5916 24.62C69.1649 24.62 69.7049 24.52 70.2116 24.32C70.7316 24.1067 71.1849 23.8133 71.5716 23.44C71.9716 23.0667 72.2849 22.6267 72.5116 22.12C72.7382 21.6133 72.8516 21.06 72.8516 20.46C72.8516 19.86 72.7382 19.3067 72.5116 18.8C72.2849 18.2933 71.9716 17.8533 71.5716 17.48C71.1849 17.1067 70.7316 16.82 70.2116 16.62C69.7049 16.4067 69.1649 16.3 68.5916 16.3C68.0182 16.3 67.4716 16.4067 66.9516 16.62C66.4449 16.82 65.9982 17.1067 65.6116 17.48C65.2249 17.8533 64.9182 18.2933 64.6916 18.8C64.4649 19.3067 64.3516 19.86 64.3516 20.46ZM60.2516 20.46C60.2516 19.34 60.4582 18.3 60.8716 17.34C61.2849 16.3667 61.8582 15.52 62.5916 14.8C63.3249 14.08 64.1982 13.52 65.2116 13.12C66.2382 12.7067 67.3649 12.5 68.5916 12.5C69.8049 12.5 70.9249 12.7067 71.9516 13.12C72.9782 13.52 73.8582 14.08 74.5916 14.8C75.3382 15.52 75.9182 16.3667 76.3316 17.34C76.7449 18.3 76.9516 19.34 76.9516 20.46C76.9516 21.58 76.7449 22.6267 76.3316 23.6C75.9182 24.56 75.3382 25.4 74.5916 26.12C73.8582 26.84 72.9782 27.4067 71.9516 27.82C70.9249 28.22 69.8049 28.42 68.5916 28.42C67.3649 28.42 66.2382 28.22 65.2116 27.82C64.1982 27.4067 63.3249 26.84 62.5916 26.12C61.8582 25.4 61.2849 24.56 60.8716 23.6C60.4582 22.6267 60.2516 21.58 60.2516 20.46ZM88.7677 19.56H96.5477C96.5477 20.36 96.5143 21.0867 96.4477 21.74C96.381 22.3933 96.2477 23 96.0477 23.56C95.7677 24.3467 95.3877 25.0467 94.9077 25.66C94.4277 26.26 93.861 26.7667 93.2077 27.18C92.5677 27.58 91.861 27.8867 91.0877 28.1C90.3143 28.3133 89.501 28.42 88.6477 28.42C87.4743 28.42 86.401 28.2267 85.4277 27.84C84.4677 27.4533 83.641 26.9133 82.9477 26.22C82.2543 25.5133 81.7143 24.6733 81.3277 23.7C80.941 22.7133 80.7477 21.6267 80.7477 20.44C80.7477 19.2667 80.9343 18.1933 81.3077 17.22C81.6943 16.2333 82.2343 15.3933 82.9277 14.7C83.6343 14.0067 84.481 13.4667 85.4677 13.08C86.4543 12.6933 87.5543 12.5 88.7677 12.5C90.341 12.5 91.721 12.84 92.9077 13.52C94.0943 14.2 95.0343 15.2533 95.7277 16.68L92.0077 18.22C91.661 17.3933 91.2077 16.8 90.6477 16.44C90.101 16.08 89.4743 15.9 88.7677 15.9C88.181 15.9 87.6477 16.0133 87.1677 16.24C86.6877 16.4533 86.2743 16.7667 85.9277 17.18C85.5943 17.58 85.3277 18.0667 85.1277 18.64C84.941 19.2133 84.8477 19.8533 84.8477 20.56C84.8477 21.2 84.9277 21.7933 85.0877 22.34C85.261 22.8867 85.5143 23.36 85.8477 23.76C86.181 24.16 86.5943 24.4733 87.0877 24.7C87.581 24.9133 88.1543 25.02 88.8077 25.02C89.1943 25.02 89.5677 24.98 89.9277 24.9C90.2877 24.8067 90.6077 24.6667 90.8877 24.48C91.181 24.28 91.421 24.0267 91.6077 23.72C91.7943 23.4133 91.921 23.04 91.9877 22.6H88.7677V19.56ZM104.445 20.46C104.445 21.06 104.559 21.6133 104.785 22.12C105.012 22.6267 105.319 23.0667 105.705 23.44C106.092 23.8133 106.539 24.1067 107.045 24.32C107.565 24.52 108.112 24.62 108.685 24.62C109.259 24.62 109.799 24.52 110.305 24.32C110.825 24.1067 111.279 23.8133 111.665 23.44C112.065 23.0667 112.379 22.6267 112.605 22.12C112.832 21.6133 112.945 21.06 112.945 20.46C112.945 19.86 112.832 19.3067 112.605 18.8C112.379 18.2933 112.065 17.8533 111.665 17.48C111.279 17.1067 110.825 16.82 110.305 16.62C109.799 16.4067 109.259 16.3 108.685 16.3C108.112 16.3 107.565 16.4067 107.045 16.62C106.539 16.82 106.092 17.1067 105.705 17.48C105.319 17.8533 105.012 18.2933 104.785 18.8C104.559 19.3067 104.445 19.86 104.445 20.46ZM100.345 20.46C100.345 19.34 100.552 18.3 100.965 17.34C101.379 16.3667 101.952 15.52 102.685 14.8C103.419 14.08 104.292 13.52 105.305 13.12C106.332 12.7067 107.459 12.5 108.685 12.5C109.899 12.5 111.019 12.7067 112.045 13.12C113.072 13.52 113.952 14.08 114.685 14.8C115.432 15.52 116.012 16.3667 116.425 17.34C116.839 18.3 117.045 19.34 117.045 20.46C117.045 21.58 116.839 22.6267 116.425 23.6C116.012 24.56 115.432 25.4 114.685 26.12C113.952 26.84 113.072 27.4067 112.045 27.82C111.019 28.22 109.899 28.42 108.685 28.42C107.459 28.42 106.332 28.22 105.305 27.82C104.292 27.4067 103.419 26.84 102.685 26.12C101.952 25.4 101.379 24.56 100.965 23.6C100.552 22.6267 100.345 21.58 100.345 20.46Z" fill="#3E58F0"/>
<path d="M19 29C26.1797 29 32 23.1797 32 16C32 8.8203 26.1797 3 19 3C11.8203 3 6 8.8203 6 16C6 23.1797 11.8203 29 19 29Z" stroke="url(#paint0_angular)" stroke-width="6"/>
<path d="M17 40L23 40L23 17C23 15.3431 21.6569 14 20 14C18.3431 14 17 15.3431 17 17L17 40Z" fill="#3E58F0"/>
<defs>
<radialGradient id="paint0_angular" cx="0" cy="0" r="1" gradientUnits="userSpaceOnUse" gradientTransform="translate(19 16) rotate(90) scale(16)">
<stop offset="0.187633" stop-color="#3E58F0"/>
<stop offset="0.188805" stop-color="#3E58F0"/>
<stop offset="0.999944" stop-color="#289FFF"/>
<stop offset="1" stop-color="#3E58F0"/>
</radialGradient>
</defs>
</svg>
