<svg width="8" height="10" viewBox="0 0 8 10" fill="none" xmlns="http://www.w3.org/2000/svg">
<path d="M7.48992 8.112C7.59392 8.224 7.64592 8.348 7.64592 8.484C7.64592 8.636 7.58592 8.772 7.46592 8.892C7.34592 9.004 7.20992 9.06 7.05792 9.06C6.88992 9.06 6.74592 8.988 6.62592 8.844L4.02192 5.568L1.40592 8.844C1.28592 8.988 1.14592 9.06 0.985916 9.06C0.833916 9.06 0.697916 9.004 0.577916 8.892C0.457916 8.772 0.397916 8.636 0.397916 8.484C0.397916 8.356 0.445916 8.232 0.541916 8.112L3.30192 4.692L0.673916 1.428C0.577916 1.324 0.529916 1.2 0.529916 1.056C0.529916 0.903999 0.585916 0.771999 0.697916 0.659999C0.817916 0.539999 0.953916 0.48 1.10592 0.48C1.27392 0.48 1.41792 0.552 1.53792 0.696L4.02192 3.828L6.50592 0.696C6.61792 0.552 6.76192 0.48 6.93792 0.48C7.08992 0.48 7.22592 0.539999 7.34592 0.659999C7.46592 0.771999 7.52592 0.903999 7.52592 1.056C7.52592 1.192 7.47392 1.316 7.36992 1.428L4.74192 4.692L7.48992 8.112Z" fill="#595959"/>
</svg>
