<svg width="16" height="16" viewBox="0 0 16 16" fill="none" xmlns="http://www.w3.org/2000/svg">
<path d="M3.75743 1.24321L14.7569 12.2426C15.6235 13.1092 15.7644 14.3778 15.0711 15.0711C14.3779 15.7644 13.1093 15.6234 12.2427 14.7568L1.24327 3.75737C0.376672 2.89077 0.235722 1.62222 0.929001 0.92894C1.62228 0.235661 2.89083 0.376611 3.75743 1.24321Z" fill="#3E58F0"/>
<path d="M1.24329 12.2427L12.2427 1.24322C13.1093 0.376626 14.3779 0.235676 15.0712 0.928955C15.7644 1.62223 15.6235 2.89078 14.7569 3.75738L3.75745 14.7568C2.89085 15.6234 1.6223 15.7644 0.929025 15.0711C0.235746 14.3778 0.376696 13.1093 1.24329 12.2427Z" fill="#3E58F0"/>
</svg>
